/* XPM */
static char *a40c8bd2c4b848f5d5f64ecd127e0d74[] = {
/* columns rows colors chars-per-pixel */
"64 64 29 1 ",
"A c #FF0000",
"B c #00FF00",
"C c #0000FF",
"D c #FFFF00",
"  c #202020",
". c #2C2C2C",
"X c gray22",
"o c #404000",
"O c #585400",
"+ c #706C00",
"@ c #484848",
"# c gray33",
"$ c #646464",
"% c gray44",
"& c #7C7C7C",
"* c #848400",
"= c #9C9C00",
"- c #B4AC00",
"; c #CCC400",
": c #E4D800",
"> c #FCF420",
", c gray55",
"< c #989898",
"1 c gray66",
"2 c #B4B4B4",
"3 c #C0C0C0",
"4 c #D0D0D0",
"5 c gainsboro",
"6 c #ECECEC",
/* pixels */
"AAAAAAAAAAAAAAAAAAAAAAAAAAAAAAAAAAAAAAAAAAAAAAAAAAAAAAAAAAAAAAAA",
"C#########@5;;;;;555555---5 X,155555;;;%,,# @@@@@@@@@@#########D",
"C#########@54----<1;;433;;, X,32,;&;===+##X X%====&&&%$@@@@@@@@D",
"C,,,,,,, #@54---+<;;=333*-$ X151,&;&+*+#&#X X=;:=+,23;;;$$;;,,,D",
"C2-221,, #@54==*+<;=11<,,=# X,3,,,11$*+#%#X X=:-+$&25;::@$;;*&4D",
"C1--#%&% #@53=*+%&<1<=,%,*# X@1;=1,,&O#%##X X=:+$,2:;&==@$=*+@,D",
"C<+#,,,% @@54=++&1<<<=,<%,# X@&=*-,11%$%XXX X*=+$&;;;&+=@%$@@$-D",
"C2&,1,%# X@54,&&<1<4&*<1,,# X@%,1,1,,,1%XXX.X*+$,,&;&&++@%&,%&*D",
"C11%%,@@ .@531<&<;<<,<,,1,#  @#%%##XXXXXXX XX&$,&11&,1&@%,<,,1&D",
"C,,,%#@@ .@561&<&;-%,,,1,,#. @@XXXXXXXXX  XXX&22,=&<&&<$%<,<,,1D",
"C%%%#@XX .@55,&<<;=%1,1,1,#. X@X..     ..XXXX&2&=@,1:&,%,%<$%,$D",
"C#@@@    .@151<&;-=%<,,&,%$X X@@@@%111155+XXX%2,&$$&=X##$@@@@@@D",
"C    ....X#,54,&,=%,,1&,=,#X X@%1>>555445;+XX#,%$$#@OXXXXXX....D",
"C........X#%14,1,,,1,,<,$$#X .X1>;=,,1,1=%O XXXXXXXXXXX..      D",
"CXXXXXXXXX#@,41,1<%<,&,1*##X .@1;*&1,::,=#+XX..........XXXXXXXXD",
"C@XXXXXXXX#@%3,1<;=%1,1,+#%@ .@1:*&,;:&,*#OX@@#### @@@@@@@@@@@@D",
"C<<<<<<<<. #@33*,=*1%,,,%$##  @::&&1::%,+#XX@:--$#@#&<<<<<<<<<<D",
"C;-55;=%%X #@,3+$<$,%%1,%,%@  @:&,&,=+$1,#XXX--*$.@&3;;;5-11;;;D",
"C-*--=+#%X #@%<$$,,%,#,%#%#@  @&,&,:$$$###X X=*#$ @<;;;&:=&1;=*D",
"C*1-=*+#%X @#@<<%,$%%%%#%#@.  .1,%,%#XXXXXX $=*%# @<;;&<==&<;=*D",
"C1,-=++##X @#@$##XXXXXX.      .,%XXX        $,*,# @<1&,<=&&1;=*D",
"C,1-+##,#X @#@....            .X#X    ......,1,1# @,1<1<1&1&1=+D",
"C1&&#%,%#X X##@X        @@@@@@@,,<=====&#.X$3513$ @,,1:<,1<11&&D",
"C;=&,,,$@X X,;;-=,222$X@$=;;;-4666;;;;-=* X&5351% @&<1<,1<:<&1<D",
"C=*1,,,$@X X;--=&&&&&X#@=;-%<11<1<=&=*=*+ X,5113: @:1<1<::&1<<1D",
"C*,,,,%#XX X-=*$$$$$$ #@<6<<=<;1<<&1*&=+O X,:,,1= @=O%$:-*+O%%#D",
"C$$$$#@XXX X-*$$<*=+$ @@<6:1<;*<;;1<*1*$O X,-%,1+ @OXX@OOOO@@##D",
"C@@XXX    .X-*$<<&*+$ @@<6;1;=&<;*<1<<&$o X,%,15O @..        XXD",
"C     ...@@@6$<1*,*+$ X@<6-<;+&1<1<&-*&$o X:6151# @XXXX...     D",
"C$$%,<,,,,@ 6<<1*,$&$o @<6-1=+&<&<1<-*&#o X-6331# @XXXXXXXXXXXXD",
"C,2--,1111$ 614,+1,&$o @<61;=+&<11<1-*,#o +=511-# @+===--**@@@@D",
"C2--*$1111@ 61<1&,&,$o @&<;=+%&1<<&<-*$#o X=55-=# @%=+===---*<XD",
"C-=*$,1--%$ 641<1*,1$o X#<=+&&,<1&<&-*%@X X=51-+# @<%%==**+++&XD",
"C-=%%1%-*%$ 6<,<1,,&$o .#161;;=,&&&&-*$@. +,43-O# @511=+%%O$%$XD",
"C%,1,%,-+%# 5111<11&$o .#,63;*+&<<,1=*$@  =,41*+o @41,=+,&<$<$XD",
"C11,11-=+%# 53&<;-&,$o  @%43*+$&,1<-=$$X  @,4,+Oo @311=+&,<<1#XD",
"C5<1,,*++%# 35,<-*,1$oo @#25+$&,1,*$$$%X X@&1&+oOX@11,=*%<&%<#XD",
"C511,<++%%# 25&1,,,,$oo X#,3<&&%%%$$%%#X X@#XXOOXX@%#@########XD",
"C52,-*,%,<# <51&11&,$#o X#@,,%%##@ o@#@  X@#@@XXX@@            D",
"C521,<,-=%# &5<<1,$,&#o .@@X...  ...XXXXXX@@@@@@@@@@@@XXXXXXXXXD",
"C5--<,-=*%# #611,,,1&#O .@@@XXXXX@@@##$$$%%&&&&&****&&&&&&&&&&XD",
"C--*1<=++$# @6<,=&,&&#O .X$=======*&&,<<1111122;;;-*33:-3;-*3&XD",
"C-*&<<,++$ .@61,*$1,$#O  X+;;;;;;;;=1313<31333;-***22:-33---*$.D",
"C-*&1,,,,# .@6,1$$,,$#O  X+;-------*13113;=<1<-*1<;;-&,3-=-*&#.D",
"C-*,,1,1,# X@51111,1$#o  X.--======*+,311==11<3<1;--&,<1%%-%%#.D",
"C*&,1,1,$# X@4,,1,,,$#X  X.,,,=*=**++%131,&<3<<1;&&&<11<,,-%%#.D",
"C,,,,&$## .X@21,,1,&$#X  X.353=++++%%,13,2,<<;;<,&%,,:-21,-%%#.D",
"C&&%$#### .X@<<1,,,%$#X  X.254*%%%%&<,=121,2;1,,1,,<2-*1<<%%%# D",
"CX ###### X@@&$$$$$$##X  X.154%&,,--*2,,2<121,-1-1<2-*<11<--%# D",
"C##..  . .X@XXXXXXXXXXX  ..,42,2<2--+,2,2<,,:-+<13<1<<1<,,2&%# D",
"C@@@XX....X@XX            .,<%%%%%*++,1%&,2:-+1,1<,,2&,,;<,<%# D",
"C&1;;;=,$@@#XX............X#@X......#%%&,-2++&&%$&,,,&&2&$&&$# D",
"C1;:;;;;-=1,%$#@XXXXXXXXXX@#@@XXXXXX.@####################### .D",
"C1;:-,,,<13-::;;;-----*%&%$$##@@@@@XX.....  ......           .XD",
"C13<-<3323231,,========*,,311111,@#@XXXXXXXXX...............XX@D",
"C133<3211<312321,,,,,***,<35::,3&X@#@@@XXXXXXXXXXXXXXXXXXXXX@@@D",
"C124323:-*2241433;=<,,,,,21,:*,&$ X#@*---$@@@###+-=*++O@@@@@###D",
"C1331,&-*O313411143313141&141,,$# X@@-***$552##=;;;=&;114;2<&@@D",
"C1,%$$$*O%&%$%&%$$$%&,1,&$$$$$$##X X@$**+$222$#,&&&&&11,;=%15< D",
"C,$@XXXXXXXXXXXXXXXXXXXXXXXXXXXXXX .@2*+$<$<,$@,,1,1;;11=*%,1# D",
"CX                                 .@XoO#$$$$$@$$<1;;=&1*%%,,# D",
"C@XXX...............................X@ooX     X@##+O###+O##### D",
"C###@@@@@@@@XXXXXXXXXXXXXXXXXXXXXXXXX@@@@XXXXXX@@              D",
"BBBBBBBBBBBBBBBBBBBBBBBBBBBBBBBBBBBBBBBBBBBBBBBBBBBBBBBBBBBBBBBB"
};
